<svg width="203" height="95" viewBox="0 0 203 95" fill="none" xmlns="http://www.w3.org/2000/svg">
<circle cx="201.93" cy="93.1758" r="0.880829" transform="rotate(180 201.93 93.1758)" fill="#D9D9D9"/>
<circle cx="92.2665" cy="93.1758" r="0.880829" transform="rotate(180 92.2665 93.1758)" fill="#D9D9D9"/>
<circle cx="201.93" cy="74.8985" r="0.880829" transform="rotate(180 201.93 74.8985)" fill="#D9D9D9"/>
<circle cx="92.2665" cy="74.8985" r="0.880829" transform="rotate(180 92.2665 74.8985)" fill="#D9D9D9"/>
<circle cx="201.93" cy="56.6221" r="0.880829" transform="rotate(180 201.93 56.6221)" fill="#D9D9D9"/>
<circle cx="92.2665" cy="56.6221" r="0.880829" transform="rotate(180 92.2665 56.6221)" fill="#D9D9D9"/>
<circle cx="201.93" cy="38.3448" r="0.880829" transform="rotate(180 201.93 38.3448)" fill="#D9D9D9"/>
<circle cx="92.2665" cy="38.3448" r="0.880829" transform="rotate(180 92.2665 38.3448)" fill="#D9D9D9"/>
<circle cx="201.93" cy="20.0674" r="0.880829" transform="rotate(180 201.93 20.0674)" fill="#D9D9D9"/>
<circle cx="92.2665" cy="20.0674" r="0.880829" transform="rotate(180 92.2665 20.0674)" fill="#D9D9D9"/>
<circle cx="201.93" cy="1.79007" r="0.880829" transform="rotate(180 201.93 1.79007)" fill="#D9D9D9"/>
<circle cx="92.2665" cy="1.79007" r="0.880829" transform="rotate(180 92.2665 1.79007)" fill="#D9D9D9"/>
<circle cx="183.652" cy="93.1758" r="0.880829" transform="rotate(180 183.652 93.1758)" fill="#D9D9D9"/>
<circle cx="73.9895" cy="93.1758" r="0.880829" transform="rotate(180 73.9895 93.1758)" fill="#D9D9D9"/>
<circle cx="183.652" cy="74.8985" r="0.880829" transform="rotate(180 183.652 74.8985)" fill="#D9D9D9"/>
<circle cx="73.9895" cy="74.8985" r="0.880829" transform="rotate(180 73.9895 74.8985)" fill="#D9D9D9"/>
<circle cx="183.652" cy="56.6221" r="0.880829" transform="rotate(180 183.652 56.6221)" fill="#D9D9D9"/>
<circle cx="73.9895" cy="56.6221" r="0.880829" transform="rotate(180 73.9895 56.6221)" fill="#D9D9D9"/>
<circle cx="183.652" cy="38.3448" r="0.880829" transform="rotate(180 183.652 38.3448)" fill="#D9D9D9"/>
<circle cx="73.9895" cy="38.3448" r="0.880829" transform="rotate(180 73.9895 38.3448)" fill="#D9D9D9"/>
<circle cx="183.652" cy="20.0674" r="0.880829" transform="rotate(180 183.652 20.0674)" fill="#D9D9D9"/>
<circle cx="73.9895" cy="20.0674" r="0.880829" transform="rotate(180 73.9895 20.0674)" fill="#D9D9D9"/>
<circle cx="183.652" cy="1.79007" r="0.880829" transform="rotate(180 183.652 1.79007)" fill="#D9D9D9"/>
<circle cx="73.9895" cy="1.79007" r="0.880829" transform="rotate(180 73.9895 1.79007)" fill="#D9D9D9"/>
<circle cx="165.376" cy="93.1758" r="0.880829" transform="rotate(180 165.376 93.1758)" fill="#D9D9D9"/>
<circle cx="55.7122" cy="93.1758" r="0.880829" transform="rotate(180 55.7122 93.1758)" fill="#D9D9D9"/>
<circle cx="165.376" cy="74.8985" r="0.880829" transform="rotate(180 165.376 74.8985)" fill="#D9D9D9"/>
<circle cx="55.7122" cy="74.8985" r="0.880829" transform="rotate(180 55.7122 74.8985)" fill="#D9D9D9"/>
<circle cx="165.376" cy="56.6221" r="0.880829" transform="rotate(180 165.376 56.6221)" fill="#D9D9D9"/>
<circle cx="55.7122" cy="56.6221" r="0.880829" transform="rotate(180 55.7122 56.6221)" fill="#D9D9D9"/>
<circle cx="165.376" cy="38.3448" r="0.880829" transform="rotate(180 165.376 38.3448)" fill="#D9D9D9"/>
<circle cx="55.7122" cy="38.3448" r="0.880829" transform="rotate(180 55.7122 38.3448)" fill="#D9D9D9"/>
<circle cx="165.376" cy="20.0674" r="0.880829" transform="rotate(180 165.376 20.0674)" fill="#D9D9D9"/>
<circle cx="55.7122" cy="20.0674" r="0.880829" transform="rotate(180 55.7122 20.0674)" fill="#D9D9D9"/>
<circle cx="165.376" cy="1.79007" r="0.880829" transform="rotate(180 165.376 1.79007)" fill="#D9D9D9"/>
<circle cx="55.7122" cy="1.79007" r="0.880829" transform="rotate(180 55.7122 1.79007)" fill="#D9D9D9"/>
<circle cx="147.098" cy="93.1758" r="0.880829" transform="rotate(180 147.098 93.1758)" fill="#D9D9D9"/>
<circle cx="37.4353" cy="93.1758" r="0.880829" transform="rotate(180 37.4353 93.1758)" fill="#D9D9D9"/>
<circle cx="147.098" cy="74.8985" r="0.880829" transform="rotate(180 147.098 74.8985)" fill="#D9D9D9"/>
<circle cx="37.4352" cy="74.8985" r="0.880829" transform="rotate(180 37.4352 74.8985)" fill="#D9D9D9"/>
<circle cx="147.098" cy="56.6221" r="0.880829" transform="rotate(180 147.098 56.6221)" fill="#D9D9D9"/>
<circle cx="37.4352" cy="56.6221" r="0.880829" transform="rotate(180 37.4352 56.6221)" fill="#D9D9D9"/>
<circle cx="147.098" cy="38.3448" r="0.880829" transform="rotate(180 147.098 38.3448)" fill="#D9D9D9"/>
<circle cx="37.4352" cy="38.3448" r="0.880829" transform="rotate(180 37.4352 38.3448)" fill="#D9D9D9"/>
<circle cx="147.098" cy="20.0674" r="0.880829" transform="rotate(180 147.098 20.0674)" fill="#D9D9D9"/>
<circle cx="37.4352" cy="20.0674" r="0.880829" transform="rotate(180 37.4352 20.0674)" fill="#D9D9D9"/>
<circle cx="147.098" cy="1.79007" r="0.880829" transform="rotate(180 147.098 1.79007)" fill="#D9D9D9"/>
<circle cx="37.4352" cy="1.79007" r="0.880829" transform="rotate(180 37.4352 1.79007)" fill="#D9D9D9"/>
<circle cx="128.821" cy="93.1758" r="0.880829" transform="rotate(180 128.821 93.1758)" fill="#D9D9D9"/>
<circle cx="19.1579" cy="93.1758" r="0.880829" transform="rotate(180 19.1579 93.1758)" fill="#D9D9D9"/>
<circle cx="128.821" cy="74.8985" r="0.880829" transform="rotate(180 128.821 74.8985)" fill="#D9D9D9"/>
<circle cx="19.1579" cy="74.8985" r="0.880829" transform="rotate(180 19.1579 74.8985)" fill="#D9D9D9"/>
<circle cx="128.821" cy="56.6221" r="0.880829" transform="rotate(180 128.821 56.6221)" fill="#D9D9D9"/>
<circle cx="19.1579" cy="56.6221" r="0.880829" transform="rotate(180 19.1579 56.6221)" fill="#D9D9D9"/>
<circle cx="128.821" cy="38.3448" r="0.880829" transform="rotate(180 128.821 38.3448)" fill="#D9D9D9"/>
<circle cx="19.1579" cy="38.3448" r="0.880829" transform="rotate(180 19.1579 38.3448)" fill="#D9D9D9"/>
<circle cx="128.821" cy="20.0674" r="0.880829" transform="rotate(180 128.821 20.0674)" fill="#D9D9D9"/>
<circle cx="19.1579" cy="20.0674" r="0.880829" transform="rotate(180 19.1579 20.0674)" fill="#D9D9D9"/>
<circle cx="128.821" cy="1.79007" r="0.880829" transform="rotate(180 128.821 1.79007)" fill="#D9D9D9"/>
<circle cx="19.1579" cy="1.79007" r="0.880829" transform="rotate(180 19.1579 1.79007)" fill="#D9D9D9"/>
<circle cx="110.544" cy="93.1758" r="0.880829" transform="rotate(180 110.544 93.1758)" fill="#D9D9D9"/>
<circle cx="0.880524" cy="93.1758" r="0.880829" transform="rotate(180 0.880524 93.1758)" fill="#D9D9D9"/>
<circle cx="110.544" cy="74.8985" r="0.880829" transform="rotate(180 110.544 74.8985)" fill="#D9D9D9"/>
<circle cx="0.880524" cy="74.8985" r="0.880829" transform="rotate(180 0.880524 74.8985)" fill="#D9D9D9"/>
<circle cx="110.544" cy="56.6221" r="0.880829" transform="rotate(180 110.544 56.6221)" fill="#D9D9D9"/>
<circle cx="0.880524" cy="56.6221" r="0.880829" transform="rotate(180 0.880524 56.6221)" fill="#D9D9D9"/>
<circle cx="110.544" cy="38.3448" r="0.880829" transform="rotate(180 110.544 38.3448)" fill="#D9D9D9"/>
<circle cx="0.88089" cy="38.3448" r="0.880829" transform="rotate(180 0.88089 38.3448)" fill="#D9D9D9"/>
<circle cx="110.544" cy="20.0674" r="0.880829" transform="rotate(180 110.544 20.0674)" fill="#D9D9D9"/>
<circle cx="0.88089" cy="20.0674" r="0.880829" transform="rotate(180 0.88089 20.0674)" fill="#D9D9D9"/>
<circle cx="110.544" cy="1.79007" r="0.880829" transform="rotate(180 110.544 1.79007)" fill="#D9D9D9"/>
<circle cx="0.88089" cy="1.79007" r="0.880829" transform="rotate(180 0.88089 1.79007)" fill="#D9D9D9"/>
</svg>
