<svg width="210" height="27" viewBox="0 0 210 27" fill="none" xmlns="http://www.w3.org/2000/svg">
<path d="M40.6998 24.0997V3.72999H45.3667V24.0997H40.6998ZM64.0106 3.72999H68.6774V24.129L53.679 12.506V24.0997H49.0122V3.70064L64.0106 15.3237V3.72999ZM91.9806 3.72999V7.39888H76.9822V13.5039H84.7309V17.2315H76.9822V24.0703L72.3153 24.0997V3.72999H91.9806ZM104.864 3.72999C108.328 3.72999 111.556 4.78663 113.963 6.72381C116.428 8.63163 117.779 11.1852 117.779 13.8855C117.779 16.6445 116.428 19.198 113.963 21.1059C111.556 23.043 108.328 24.0997 104.864 24.0997C101.401 24.0997 98.1721 23.043 95.7653 21.1059C93.2704 19.198 91.9496 16.6445 91.9496 13.8855C91.9496 11.1852 93.2704 8.63163 95.7653 6.72381C98.1721 4.78663 101.401 3.72999 104.864 3.72999ZM113.082 13.8855C113.082 10.3046 109.414 7.39888 104.864 7.39888C100.315 7.39888 96.6165 10.3046 96.6165 13.8855C96.6165 17.525 100.315 20.4308 104.864 20.4308C109.414 20.4308 113.082 17.525 113.082 13.8855ZM127.785 3.72999C131.982 3.72999 135.445 6.43029 135.445 9.74697V9.77632H130.779V9.74697C130.779 8.48487 129.458 7.39888 127.785 7.39888C126.17 7.39888 124.85 8.48487 124.85 9.74697C124.85 11.0384 126.17 12.0657 127.785 12.0657C131.982 12.0657 135.445 14.766 135.445 18.0827C135.445 21.3994 131.982 24.0997 127.785 24.0997C123.588 24.0997 120.183 21.3994 120.183 18.0827V18.0533H124.85V18.0827C124.85 19.3448 126.17 20.4308 127.785 20.4308C129.458 20.4308 130.779 19.3448 130.779 18.0827C130.779 16.7912 129.458 15.7639 127.785 15.7639C123.588 15.7639 120.183 13.0636 120.183 9.74697C120.183 6.43029 123.588 3.72999 127.785 3.72999ZM154.07 3.72999H158.737V24.129L143.739 12.506V24.0997H139.072V3.70064L154.07 15.3237V3.72999ZM184.799 24.0703L179.545 24.129L177.961 21.1646C176.669 21.8103 175.202 22.1625 173.734 22.1625C172.12 22.1625 170.593 21.869 169.243 21.1352L167.658 24.0997V24.129L162.375 24.0703L173.587 3.72999L184.799 24.0703ZM173.734 18.5817C174.615 18.5817 175.466 18.3468 176.288 17.9359L173.587 12.8582L170.975 17.8185C171.826 18.3175 172.765 18.5817 173.734 18.5817ZM193.097 24.0997H188.43V3.72999H198.615C203.869 3.72999 208.095 7.04667 208.095 11.1558C208.095 15.2943 203.869 18.6404 198.615 18.6404H193.097V24.0997ZM203.428 11.1558C203.428 9.10124 201.286 7.39888 198.615 7.39888H193.097V14.9421H198.615C201.286 14.9421 203.428 13.2398 203.428 11.1558Z" fill="#3E3E3E"/>
<path fill-rule="evenodd" clip-rule="evenodd" d="M28.8988 21.0376L28.8988 26.2979L25.1492 26.2979L25.1492 24.7872L3.74986 24.7873L3.74986 26.2979L0.000209857 26.2979L0.000209808 21.0376L28.8988 21.0376Z" fill="#17CF97"/>
<path fill-rule="evenodd" clip-rule="evenodd" d="M28.8988 6.40869L28.8988 0.987219L25.1492 0.987219L25.1492 2.65904L3.74986 2.65904L3.74986 0.98722L0.000209758 0.98722L0.000209808 6.40869L28.8988 6.40869Z" fill="#17CF97"/>
<path fill-rule="evenodd" clip-rule="evenodd" d="M25.3102 19.2046L25.3102 8.08105L29.0598 8.08105L29.0598 19.2046L25.3102 19.2046ZM3.74966 8.08105L3.74966 19.2046L1.34857e-05 19.2046L1.33514e-05 8.08106L3.74966 8.08105Z" fill="#17CF97"/>
</svg>
