<svg width="30" height="26" viewBox="0 0 30 26" fill="none" xmlns="http://www.w3.org/2000/svg">
<path fill-rule="evenodd" clip-rule="evenodd" d="M28.8989 20.0503L28.8989 25.3106L25.1493 25.3106L25.1493 23.7999L3.74998 23.7999L3.74998 25.3106L0.000331927 25.3106L0.000331879 20.0503L28.8989 20.0503Z" fill="#D9D9D9"/>
<path fill-rule="evenodd" clip-rule="evenodd" d="M28.8989 5.42139L28.8989 -8.53539e-05L25.1493 -8.52959e-05L25.1493 1.67173L3.74998 1.67173L3.74998 -8.49653e-05L0.000331829 -8.49073e-05L0.000331879 5.42139L28.8989 5.42139Z" fill="#D9D9D9"/>
<path fill-rule="evenodd" clip-rule="evenodd" d="M25.3104 18.2173L25.3104 7.09375L29.0601 7.09375L29.0601 18.2173L25.3104 18.2173ZM3.74991 7.09375L3.74991 18.2173L0.000257626 18.2173L0.000257492 7.09375L3.74991 7.09375Z" fill="#D9D9D9"/>
</svg>
