<svg width="38" height="38" viewBox="0 0 38 38" fill="none" xmlns="http://www.w3.org/2000/svg">
<mask id="mask0_1_1681" style="mask-type:alpha" maskUnits="userSpaceOnUse" x="0" y="0" width="38" height="38">
<path d="M38 19C38 29.4934 29.4934 38 19 38C8.50659 38 0 29.4934 0 19C0 8.50659 8.50659 0 19 0C29.4934 0 38 8.50659 38 19Z" fill="#FFB600"/>
</mask>
<g mask="url(#mask0_1_1681)">
<path d="M0.692561 24.4285L-1.52303 23.1629C-0.627483 22.1043 0.354382 21.1187 1.3794 20.2061C0.192535 19.1596 -0.794844 18.0036 -1.80908 16.7502L0.552055 15.3809C1.73893 16.841 3.07686 18.1796 4.51187 19.3356L5.42902 20.0778L4.24239 20.9605C2.96919 21.9948 1.77154 23.1629 0.692561 24.4285Z" fill="#FFB600"/>
<path fill-rule="evenodd" clip-rule="evenodd" d="M0.297865 24.4284C0.185707 24.4306 0.0775526 24.3898 -0.000917792 24.3155L-1.24731 23.1369C-1.39658 22.9957 -1.40225 22.7717 -1.2603 22.6242C-0.40327 21.7338 0.525745 20.8995 1.49355 20.1211C0.354026 19.2107 -0.726016 18.2159 -1.71211 17.1449C-1.85025 16.9949 -1.83962 16.7716 -1.68776 16.6333L-0.429935 15.4886C-0.349715 15.4156 -0.240355 15.3767 -0.127957 15.3812C-0.0155598 15.3857 0.0897915 15.4331 0.162952 15.5122C1.40272 16.8527 2.80003 18.0812 4.29777 19.1416L4.2985 19.1421L5.27044 19.8335C5.37041 19.9045 5.42902 20.0146 5.42902 20.1313C5.42902 20.248 5.37041 20.3581 5.27044 20.4292L4.29908 21.1201C4.29902 21.1202 4.29914 21.1201 4.29908 21.1201C2.96918 22.0697 1.71794 23.1423 0.591136 24.3038C0.516182 24.381 0.410024 24.4261 0.297865 24.4284ZM4.05118 20.8227L5.02313 20.1313L4.05118 19.44C2.6369 18.4387 1.31162 17.2904 0.12131 16.0407C0.0316411 15.9465 -0.0572617 15.8518 -0.145379 15.7565L-1.4032 16.9012C-0.418116 17.9711 0.663014 18.9648 1.80498 19.8736C1.90906 19.9565 2.01365 20.0386 2.11871 20.12C2.01405 20.2019 1.90981 20.2844 1.80605 20.3676C0.832744 21.1475 -0.0996008 21.9831 -0.957248 22.8741L0.289142 24.0528C0.379638 23.9595 0.470922 23.8668 0.562971 23.7746C1.63402 22.7026 2.80866 21.7098 4.05118 20.8227Z" fill="#FFB600"/>
<path d="M37.0807 24.4285C35.8484 23.184 34.4807 22.0233 33.0143 21.0062L31.6663 20.138L32.864 19.2699C34.5152 18.1211 36.0308 16.8048 37.3863 15.3809L38.9044 16.7277C37.7461 17.9602 36.7652 19.0969 35.3974 20.138C36.5803 21.0355 37.3887 22.0047 38.4115 23.0458L37.0807 24.4285Z" fill="#FFB600"/>
<path fill-rule="evenodd" clip-rule="evenodd" d="M36.8059 24.4284C36.6978 24.4264 36.5951 24.3827 36.5219 24.3073C35.3927 23.1463 34.1402 22.0643 32.7988 21.117L32.7981 21.1164L31.8251 20.426C31.7251 20.3551 31.6663 20.2437 31.6663 20.1254C31.6663 20.007 31.7251 19.8956 31.8251 19.8247L32.7984 19.1341C34.3094 18.0638 35.6977 16.8365 36.9402 15.5075C37.0115 15.4311 37.1125 15.3856 37.22 15.3812C37.3275 15.3768 37.4322 15.4139 37.5102 15.4841L38.7809 16.6273C38.9351 16.766 38.9463 16.9953 38.8063 17.147C37.8198 18.2157 36.7396 19.2083 35.5917 20.125C36.5668 20.9027 37.4865 21.735 38.3426 22.6222C38.4855 22.7703 38.4803 22.9985 38.331 23.1407L37.0947 24.3177C37.0184 24.3904 36.9141 24.4304 36.8059 24.4284ZM35.282 20.3693C36.2646 21.1491 37.19 21.9846 38.0499 22.8757L36.8136 24.0528C36.724 23.9607 36.6337 23.8691 36.5426 23.7781C35.4695 22.7048 34.2916 21.7026 33.0359 20.8158L32.0629 20.1254L33.0359 19.435C34.4631 18.424 35.7813 17.2759 36.9721 16.0362C37.0611 15.9435 37.1495 15.8503 37.2371 15.7565L38.5078 16.8996C37.52 17.9698 36.4358 18.9636 35.2817 19.8811C35.1785 19.9631 35.0748 20.0446 34.9705 20.1254C35.0749 20.2061 35.1788 20.2873 35.282 20.3693Z" fill="#FFB600"/>
<path d="M19.0011 6.33335C15.7126 6.33335 12.9888 3.51494 12.6677 0.176335L14.5852 0C14.8178 2.44517 16.5652 4.27906 19.0011 4.27906C21.437 4.27906 23.1844 2.43342 23.4169 0L25.3344 0.176335C25.0133 3.51494 22.2895 6.33335 19.0011 6.33335Z" fill="#FFB600"/>
<path fill-rule="evenodd" clip-rule="evenodd" d="M12.7497 0.301946C12.8108 0.224118 12.8991 0.174733 12.9952 0.164671L14.5502 0.00193148C14.7501 -0.0189958 14.9286 0.132524 14.9488 0.340395C15.1475 2.38704 16.8753 3.94918 19.001 3.94918C21.126 3.94918 22.8546 2.37687 23.0534 0.340214C23.0736 0.132423 23.252 -0.0189886 23.4519 0.00193148L25.0069 0.164671C25.103 0.174733 25.1913 0.224118 25.2524 0.301946C25.3135 0.379773 25.3423 0.479654 25.3325 0.57958C25.0098 3.86519 22.2761 6.33335 19.001 6.33335C15.726 6.33335 12.9923 3.86519 12.6696 0.57958C12.6598 0.479654 12.6886 0.379773 12.7497 0.301946ZM24.9219 0.91635C24.4563 3.80975 21.9734 5.95496 19.001 5.95496C16.0287 5.95496 13.5458 3.80975 13.0802 0.91635C13.0603 0.792613 13.0441 0.667508 13.0317 0.541142L14.5866 0.378404C14.8058 2.63506 16.7051 4.32756 19.001 4.32756C21.297 4.32756 23.1963 2.62421 23.4155 0.378404L24.9704 0.541142C24.958 0.667508 24.9418 0.792613 24.9219 0.91635Z" fill="#FFB600"/>
<path d="M22.2555 38.9046C21.4279 37.6726 20.0451 37.2311 18.5575 37.2311C17.0698 37.2311 15.687 37.6726 14.8594 38.9046L13.5708 37.9476C14.6918 36.2756 15.8327 34.3809 18.547 34.3809C21.2613 34.3809 22.4022 36.2866 23.5232 37.9476L22.2555 38.9046Z" fill="#FFB600"/>
<path fill-rule="evenodd" clip-rule="evenodd" d="M21.9454 38.8992C21.8559 38.8817 21.7761 38.8233 21.7237 38.737C21.0191 37.5758 19.8365 36.8739 18.5568 36.8739C17.277 36.8739 16.0944 37.5758 15.3898 38.737C15.3377 38.8229 15.2584 38.8811 15.1694 38.8989C15.0803 38.9168 14.9888 38.8927 14.9151 38.832L13.7146 37.845C13.5614 37.719 13.5249 37.4726 13.6329 37.2943C14.7433 35.4605 16.5862 34.3809 18.547 34.3809C20.5189 34.3809 22.351 35.4731 23.4605 37.2932C23.5687 37.4707 23.5334 37.7163 23.3815 37.8432L22.2006 38.8303C22.1268 38.8919 22.035 38.9167 21.9454 38.8992ZM22.0019 38.509L23.1828 37.522C23.1683 37.4982 23.1536 37.4745 23.1389 37.4509C23.0866 37.3677 23.0328 37.2862 22.9774 37.2064C21.9203 35.6829 20.2936 34.7765 18.547 34.7765C16.8091 34.7765 15.174 35.6734 14.1159 37.2056C14.0501 37.301 13.9864 37.3988 13.9252 37.499C13.9205 37.5066 13.9158 37.5143 13.9112 37.522L15.1116 38.509C15.1136 38.5057 15.1156 38.5025 15.1175 38.4993C15.8893 37.2345 17.1745 36.4782 18.5568 36.4782C19.9177 36.4782 21.1846 37.2113 21.9599 38.4411C21.974 38.4636 21.988 38.4862 22.0019 38.509Z" fill="#FFB600"/>
<path d="M27.1431 37.0955C25.3981 34.2332 22.3324 32.0053 18.5479 32.0053C14.7633 32.0053 11.6867 34.2332 9.95263 37.0955L8.14307 35.4922C10.1717 32.1642 14.1635 29.8574 18.5479 29.8574C22.9432 29.8574 26.924 32.1642 28.9526 35.4922L27.1431 37.0955Z" fill="#FFB600"/>
<path fill-rule="evenodd" clip-rule="evenodd" d="M27.0928 37.0807C26.9993 37.0535 26.9206 36.9907 26.8741 36.9062C25.2576 33.9678 22.0702 32.137 18.5478 32.137C15.0248 32.137 11.8277 33.9682 10.222 36.9054C10.1756 36.9902 10.097 37.0532 10.0034 37.0806C9.90978 37.108 9.80897 37.0974 9.72322 37.0514L8.33439 36.3045C8.15677 36.209 8.09105 35.9897 8.18753 35.8144C10.2113 32.135 14.1889 29.8574 18.5478 29.8574C22.9175 29.8574 26.8845 32.1352 28.9081 35.8144C29.0046 35.9897 28.9389 36.209 28.7613 36.3045L27.3724 37.0514C27.2869 37.0974 27.1862 37.108 27.0928 37.0807ZM28.5856 35.9869C28.577 35.9712 28.5684 35.9556 28.5597 35.9401C28.5094 35.8498 28.4579 35.7603 28.4053 35.6717C26.3988 32.2988 22.6615 30.2192 18.5478 30.2192C14.4444 30.2192 10.6975 32.2988 8.69043 35.6717C8.63767 35.7604 8.58608 35.85 8.53574 35.9405C8.52716 35.9559 8.51862 35.9714 8.51008 35.9869L9.89892 36.7337C9.91358 36.7069 9.92842 36.6802 9.94335 36.6536C11.6302 33.6404 14.9288 31.7753 18.5478 31.7753C22.1834 31.7753 25.4852 33.6576 27.1753 36.695C27.1824 36.7079 27.1896 36.7208 27.1967 36.7338L28.5856 35.9869Z" fill="#FFB600"/>
<path fill-rule="evenodd" clip-rule="evenodd" d="M14.691 10.8572C11.1992 9.65281 8.1948 5.99694 7.23877 2.46114L9.0562 2.06282C10.0302 5.68458 13.2211 8.21878 17.0864 8.79888C16.212 8.9947 15.4017 10.3795 14.691 10.8572ZM20.272 8.67223C24.1373 8.09217 27.0743 5.43132 28.0483 1.80957L29.8578 2.46114C28.9018 5.9969 26.1592 9.65281 22.6674 10.8572C21.9567 10.3795 21.1465 8.86804 20.272 8.67223Z" fill="#FFB600"/>
<path fill-rule="evenodd" clip-rule="evenodd" d="M14.8516 10.7896C14.7551 10.8592 14.6326 10.8761 14.5222 10.8353C10.9967 9.5317 8.2197 6.55045 7.25093 2.70937C7.22607 2.61086 7.23966 2.50605 7.28866 2.41804C7.3377 2.33004 7.41808 2.26607 7.51219 2.24024L9.035 1.8222C9.23059 1.76851 9.4307 1.89099 9.48211 2.09583C10.3959 5.73859 13.3945 8.42926 17.0446 9.01651C17.2184 9.0445 17.3487 9.1978 17.3551 9.38176C17.3615 9.56577 17.2422 9.72859 17.0708 9.76972C16.2604 9.96428 15.5098 10.3154 14.8516 10.7896ZM19.7415 9.38176C19.7479 9.19775 19.8782 9.0445 20.0519 9.01651C23.7021 8.42926 26.7008 5.73859 27.6145 2.09583C27.6659 1.89099 27.866 1.76851 28.0616 1.8222L29.5844 2.24024C29.6785 2.26607 29.7589 2.33004 29.8079 2.41804C29.8569 2.50605 29.8705 2.61086 29.8457 2.70937C28.8769 6.55045 26.0999 9.5317 22.5744 10.8353C22.4639 10.8761 22.3415 10.8592 22.2449 10.7896C21.5868 10.3154 20.8362 9.96428 20.0257 9.76972C19.8544 9.72859 19.7351 9.56577 19.7415 9.38176ZM14.6441 10.4735C15.1249 10.127 15.6524 9.84277 16.215 9.63243C16.4663 9.53846 16.7247 9.45919 16.989 9.39575C16.7207 9.35257 16.4556 9.29839 16.1944 9.23365C12.773 8.38571 10.0137 5.72482 9.12786 2.19339C9.12786 2.19338 9.12786 2.19342 9.12786 2.19339L7.60504 2.61137C7.63634 2.73539 7.66955 2.85848 7.70469 2.98063C8.72121 6.51339 11.34 9.25176 14.6441 10.4735ZM20.9022 9.23365C20.641 9.29839 20.3759 9.35257 20.1075 9.39575C20.3719 9.45919 20.6302 9.53846 20.8816 9.63243C21.4442 9.84277 21.9716 10.127 22.4525 10.4735C25.7566 9.25176 28.3754 6.51339 29.3919 2.98063C29.427 2.8586 29.4602 2.73561 29.4915 2.61171C29.4914 2.61182 29.4915 2.6116 29.4915 2.61171L27.9688 2.19333C27.0829 5.72477 24.3237 8.38571 20.9022 9.23365Z" fill="#FFB600"/>
<path fill-rule="evenodd" clip-rule="evenodd" d="M15.4001 21.4858C14.2579 20.8253 13.3277 19.5811 12.7323 18.4069C11.1981 17.9399 9.72063 17.2973 8.3331 16.4881C5.50205 14.8447 3.07697 12.2499 1.3463 9.50722L-0.904541 10.8572C0.965014 13.8176 3.73055 16.3104 6.78592 18.0953C8.44969 19.0593 9.90979 19.8465 11.7621 20.3572C9.91363 20.8666 9.21376 21.3761 7.5532 22.3436C4.9038 23.8782 2.24738 26.0621 0.452604 28.5001L0.534389 28.7868L0.822832 29.2657C1.82705 30.9091 3.31596 32.4111 4.74751 33.7171L5.46329 34.381L5.99744 33.5321C8.33073 29.6201 11.3038 27.8061 15.8335 27.1429L16.6065 24.6633C14.4208 24.958 12.3101 25.671 10.4056 26.7624C8.20488 28.0249 5.93423 30.0512 4.52402 32.1191C3.62665 31.2049 3.20518 30.1952 2.51077 29.1286C4.11325 27.0715 6.07894 25.3519 8.36515 24.0241C10.5328 22.7601 12.9198 21.9024 15.4001 21.4858ZM21.1486 24.6561L21.5816 27.1558C26.1348 27.8015 29.3135 30.4415 31.6669 34.381L33.4492 32.6832C31.9856 30.2343 29.9024 28.1882 27.4025 26.7624C25.4778 25.6558 23.3499 24.9446 21.1486 24.6561ZM25.0185 18.4015C26.5465 17.935 28.018 17.2942 29.4003 16.4881C32.1031 14.91 34.2912 12.6004 36.0112 10.021C35.3702 8.8129 34.7418 7.81376 33.8551 6.76894C32.0683 10.1925 29.1537 13.2301 25.6671 14.7305C25.5814 14.1786 25.4282 13.25 25.2161 12.7503C28.6211 11.2328 31.4006 7.3393 32.915 3.8245L33.3958 2.71436L34.2291 4.75543C35.6713 6.26828 36.8678 7.96617 37.7972 9.82727L38.0002 10.2408L37.7545 10.6327C35.885 13.5931 33.2783 16.24 30.2122 18.0249C28.5508 18.9981 26.868 19.9312 25.0185 20.442C26.8718 20.9528 28.5584 21.3791 30.2229 22.3436C32.8616 23.8782 35.1158 25.9026 36.9106 28.3406L35.6286 30.3576C33.962 28.0938 31.8788 26.2218 29.4324 24.7961C27.2527 23.525 24.8512 22.6649 22.3561 22.2509C23.493 21.5872 24.4222 19.5717 25.0185 18.4015ZM12.0864 15.3784C12.1712 14.8273 12.3233 13.1275 12.5341 12.6283C9.12144 11.1154 6.59565 8.52637 5.07869 5.00579L2.44997 5.65881C4.15477 9.62663 8.22089 13.7207 12.0864 15.3784Z" fill="#FFB600"/>
<path fill-rule="evenodd" clip-rule="evenodd" d="M12.361 18.3487C12.4582 18.3786 12.5395 18.4479 12.5861 18.5405C13.1501 19.6627 14.0322 20.6 15.1174 21.2332C15.2551 21.3135 15.3286 21.4745 15.3008 21.6348C15.273 21.7951 15.1499 21.9199 14.9936 21.9464C12.5462 22.3612 10.1917 23.215 8.05444 24.4725C5.88075 25.7464 4.00149 27.3821 2.4542 29.3309C3.01885 30.1777 3.65207 30.9757 4.34861 31.7248C5.76613 29.7462 7.61025 28.0772 9.73427 26.8477C11.6887 25.7177 13.854 24.9797 16.0952 24.6749C16.1997 24.6607 16.3052 24.6925 16.3857 24.7625C16.4661 24.8324 16.5141 24.9341 16.5178 25.0424L16.5749 26.7173C16.5816 26.9134 16.4435 27.0832 16.2545 27.1111C11.8108 27.7675 7.83123 30.3807 5.54926 34.241C5.54774 34.2436 5.54613 34.2462 5.54452 34.2488L5.00814 35.1089C4.94873 35.2042 4.85149 35.2677 4.74232 35.2825C4.63319 35.2973 4.52326 35.2619 4.44183 35.1857L3.72538 34.5151L3.72437 34.5142C2.26038 33.1664 1.00436 31.6168 -0.0220653 29.9218L-0.0233346 29.9197L-0.312966 29.4345C-0.393438 29.2998 -0.385329 29.128 -0.292535 29.0019L0.0391384 28.5509C1.87183 26.0392 4.16362 23.9525 6.8684 22.3717C8.20001 21.5889 9.60587 20.9483 11.0617 20.4554C9.60203 19.9615 8.19263 19.3207 6.85798 18.5404L6.85682 18.5397C3.73874 16.7018 1.06576 14.1232 -0.845102 11.0702C-0.898753 10.9845 -0.917069 10.8804 -0.896022 10.7807C-0.874979 10.6811 -0.816293 10.5942 -0.732886 10.5391L0.618761 9.64589C0.702151 9.59077 0.803423 9.57199 0.900292 9.59363C0.997165 9.61527 1.0817 9.67562 1.13531 9.76132C2.83986 12.4869 5.23015 14.804 8.02163 16.439C9.38968 17.244 10.8474 17.8839 12.361 18.3487ZM11.6836 20.2547C11.9091 20.3251 12.1357 20.392 12.3634 20.4553C12.1357 20.5186 11.9091 20.5855 11.6836 20.6559C10.0708 21.1598 8.51639 21.8455 7.05348 22.7055C4.39311 24.2603 2.14036 26.3114 0.338168 28.7815L0.00562012 29.2336L0.295258 29.7188C1.30363 31.3839 2.53727 32.9056 3.97474 34.2289L4.69346 34.9016L5.22984 34.0414C7.57283 30.078 11.6529 27.4027 16.2013 26.7308L16.1442 25.0558C16.02 25.0727 15.8959 25.091 15.7721 25.1106C13.7101 25.4374 11.7217 26.1394 9.9177 27.1825C7.82036 28.3966 6.00325 30.0476 4.61307 32.0038C4.53855 32.1088 4.46519 32.2145 4.39311 32.3212C4.30336 32.229 4.21458 32.1359 4.12676 32.0421C3.33281 31.1943 2.61801 30.2838 1.99018 29.3108C3.59928 27.2267 5.57313 25.4843 7.86878 24.139C9.88287 22.9539 12.0857 22.1214 14.3768 21.6693C14.5616 21.6328 14.747 21.5988 14.9328 21.5673C14.7699 21.4722 14.6111 21.3705 14.457 21.2628C13.5272 20.6122 12.7669 19.7374 12.254 18.7169C10.7134 18.2437 9.22985 17.5927 7.83659 16.7729C4.99428 15.108 2.55948 12.7487 0.821703 9.97041L0.82089 9.96907L-0.530757 10.8623C-0.463358 10.97 -0.394991 11.0771 -0.325672 11.1835C1.53581 14.0428 4.08488 16.4629 7.04275 18.2064C8.50888 19.0636 10.067 19.7498 11.6836 20.2547ZM20.5965 27.1016C20.4068 27.0744 20.2678 26.9043 20.2745 26.7076L20.3315 25.035C20.3352 24.927 20.383 24.8255 20.4631 24.7556C20.5433 24.6856 20.6485 24.6536 20.7528 24.6674C23.0098 24.9659 25.1926 25.7017 27.1682 26.8477C29.7337 28.3242 31.8726 30.4436 33.3759 32.9815C33.4832 33.1627 33.4274 33.3991 33.2511 33.5094L31.878 34.3696C31.7933 34.4226 31.6916 34.4389 31.5952 34.4148C31.4988 34.3907 31.4157 34.3283 31.3642 34.2412C29.0623 30.3532 25.063 27.7407 20.5965 27.1016ZM26.9849 27.1825C25.1608 26.1244 23.1552 25.4231 21.0773 25.1018C20.9534 25.0827 20.8294 25.0649 20.705 25.0485L20.648 26.721C25.2139 27.3744 29.3095 30.0429 31.6741 34.0256C31.6772 34.0309 31.6803 34.0362 31.6835 34.0414L33.0566 33.1813C33.055 33.1786 33.0533 33.1758 33.0517 33.173C32.9884 33.0664 32.9241 32.9605 32.8585 32.8554C31.4016 30.5186 29.3844 28.5634 26.9849 27.1825ZM24.5911 18.7115C26.1254 18.2388 27.6029 17.5895 28.9909 16.7729C31.7049 15.1739 34.6759 12.3763 36.403 9.76288C35.8227 8.65945 35.1466 7.61875 34.3667 6.64885C34.2815 6.54285 34.195 6.43771 34.1073 6.33341C34.0447 6.45447 33.9807 6.57451 33.9154 6.69356C32.1715 9.87179 28.8193 12.9421 25.5957 14.4301C25.4786 14.4842 25.3608 14.537 25.2423 14.5884C25.2223 14.4583 25.1986 14.3295 25.1714 14.2019C25.0815 13.781 24.9529 13.3744 24.7895 12.9858C28.2085 11.4483 30.9995 8.68927 32.5202 5.12814L33.003 4.00337L33.8397 4.88556C35.2879 6.41835 36.4894 8.13859 37.4226 10.0242L37.6264 10.4433L37.3797 10.8403C35.5024 13.8396 32.8849 16.3869 29.8062 18.1954C28.3423 19.0606 26.7867 19.7495 25.1727 20.2549C24.9474 20.3255 24.721 20.3924 24.4936 20.4558C24.7211 20.5191 24.9475 20.5859 25.1729 20.6562C26.7906 21.1612 28.3498 21.8478 29.8169 22.7055C32.3566 24.1958 34.5415 26.142 36.3054 28.4761C36.3817 28.577 36.4572 28.6786 36.5319 28.7809L35.245 29.7739C33.5716 27.4805 31.4795 25.5835 29.0231 24.139C26.9966 22.9466 24.7791 22.1112 22.4728 21.661C22.2883 21.625 22.1032 21.5914 21.9176 21.5604C22.0799 21.4647 22.238 21.3627 22.3914 21.2546C23.3177 20.6022 24.0774 19.7285 24.5911 18.7115ZM25.7941 20.4552C27.2552 20.9493 28.6659 21.5905 30.0017 22.3715C32.6953 23.9521 34.9981 26.0384 36.8313 28.5509C36.9551 28.7207 36.9217 28.9616 36.7565 29.0889L35.4693 30.0813C35.3899 30.1425 35.2903 30.1687 35.1921 30.1543C35.0939 30.1399 35.0054 30.086 34.9459 30.0045C33.3034 27.7532 31.2503 25.8914 28.8375 24.4726C26.6884 23.208 24.3196 22.3517 21.8575 21.9396C21.7013 21.9134 21.5781 21.789 21.5498 21.6289C21.5216 21.4689 21.5944 21.3079 21.7317 21.227C22.8126 20.5903 23.6944 19.6531 24.2593 18.5344C24.3059 18.4422 24.3869 18.3733 24.4837 18.3435C25.9911 17.8791 27.4422 17.2414 28.805 16.4395C31.4037 14.9085 34.2838 12.2199 35.9646 9.74008C35.4439 8.77739 34.8478 7.8653 34.1707 7.00914C32.3182 10.3181 28.7962 13.4624 25.3878 14.9424C25.2819 14.9883 25.1613 14.9817 25.0608 14.9243C24.9603 14.8669 24.8911 14.7652 24.8731 14.6484C24.792 14.1216 24.6471 13.6155 24.4464 13.1383C24.3647 12.9441 24.4511 12.7186 24.6397 12.6338C27.977 11.133 30.6968 8.44214 32.178 4.97372L32.661 3.84829C32.7111 3.73151 32.8144 3.64794 32.9365 3.62526C33.0587 3.60258 33.1839 3.64376 33.2706 3.73515L34.1073 4.61733C35.5812 6.17725 36.8052 7.92941 37.7558 9.85002L37.7569 9.85239L37.9608 10.2714C38.0196 10.3923 38.0123 10.5362 37.9414 10.6501L37.694 11.0481C35.7838 14.1003 33.1217 16.6904 29.9917 18.529C28.6588 19.3168 27.2515 19.9604 25.7941 20.4552ZM12.2041 12.6444C12.3928 12.7289 12.4797 12.9542 12.3983 13.1486C12.1988 13.6253 12.0549 14.1307 11.9747 14.6568C11.9569 14.7736 11.8878 14.8754 11.7873 14.9329C11.6869 14.9905 11.5663 14.9973 11.4604 14.9515C7.49495 13.2355 4.24735 10.0696 2.49521 5.95488C2.41245 5.7605 2.49861 5.53398 2.68768 5.44886L4.15733 4.78721C4.34631 4.70213 4.56663 4.79056 4.64955 4.98472C6.13307 8.45872 8.85928 11.1482 12.2041 12.6444ZM4.30728 5.13918C5.83055 8.70617 8.6282 11.4639 12.055 12.9967C11.8926 13.3847 11.7649 13.7906 11.6758 14.2107C11.6488 14.3383 11.6252 14.4672 11.6054 14.5973C11.4869 14.546 11.369 14.4934 11.2518 14.4395C7.6436 12.7793 4.6808 9.8797 2.99149 6.15101C2.93975 6.03678 2.88919 5.9218 2.83986 5.80601C2.83911 5.80427 2.83837 5.80252 2.83763 5.80083L4.30728 5.13918Z" fill="#FFB600"/>
</g>
</svg>
